<svg xmlns="http://www.w3.org/2000/svg" xmlns:xlink="http://www.w3.org/1999/xlink" width="250" zoomAndPan="magnify" viewBox="0 0 187.5 187.499992" height="250" preserveAspectRatio="xMidYMid meet" version="1.0"><defs><g/><clipPath id="8c6c421610"><path d="M 59.40625 23.460938 L 127.476562 23.460938 L 127.476562 118.457031 L 59.40625 118.457031 Z M 59.40625 23.460938 " clip-rule="nonzero"/></clipPath></defs><path fill="#ffffff" d="M 0 0 L 187 0 L 187 187 L 0 187 Z M 0 0 " fill-opacity="1" fill-rule="nonzero"/><path fill="#121212" d="M 0 0 L 186.976562 0 L 186.976562 186.976562 L 0 186.976562 Z M 0 0 " fill-opacity="1" fill-rule="nonzero"/><g clip-path="url(#8c6c421610)"><path fill="#121212" d="M 84.972656 51.429688 L 81.554688 30.082031 L 88.261719 23.476562 L 103.5625 27.972656 L 121.339844 44.027344 L 127.59375 62.542969 L 125.980469 70.5625 L 117.222656 72.878906 L 102.105469 57.328125 L 102.085938 75.902344 L 105.675781 95.320312 L 100.628906 113.484375 L 86.875 118.304688 L 63.960938 115.179688 L 59.40625 98.226562 L 71.679688 83.574219 L 88.019531 85.648438 L 82.875 65.035156 Z M 84.972656 51.429688 " fill-opacity="1" fill-rule="nonzero"/></g><path fill="#7b7b7b" d="M 97.972656 99.734375 C 98.011719 99.96875 98.011719 100.214844 97.964844 100.460938 C 97.414062 103.289062 95.566406 104.804688 93.992188 106.417969 C 92.019531 108.4375 89.746094 111.589844 86.132812 112.585938 C 82.828125 113.496094 80.429688 113 77.699219 112.074219 C 76.195312 111.5625 73.476562 110.976562 71.816406 110.019531 C 70.304688 109.148438 68.550781 107.738281 67.71875 106.320312 C 66.511719 104.257812 66.183594 103.34375 66.277344 102.128906 C 66.359375 101.105469 67.460938 99.824219 68.097656 98.714844 C 68.945312 97.238281 69.652344 94.699219 71.359375 93.253906 C 73.089844 91.785156 75.070312 90.933594 77.175781 90.082031 C 78.328125 89.617188 79.457031 88.792969 80.738281 88.699219 C 82.574219 88.5625 84.953125 89.359375 86.855469 89.808594 C 89.28125 90.382812 91.742188 90.265625 93.925781 92.480469 C 93.898438 90.171875 93.4375 87.863281 93.371094 85.539062 C 93.300781 83.078125 93.585938 79.875 93.5 77.714844 C 93.429688 75.980469 93.109375 74.28125 92.847656 72.578125 C 92.410156 69.722656 91.207031 63.832031 90.871094 60.582031 C 90.617188 58.105469 91.070312 55.449219 90.847656 53.078125 C 90.628906 50.785156 89.675781 48.527344 89.535156 46.371094 C 89.25 42.03125 89.558594 39.464844 89.28125 36.777344 C 89.082031 34.867188 88.210938 32.007812 88.355469 31.128906 C 88.445312 30.589844 88.746094 30.132812 89.160156 29.839844 C 89.308594 29.710938 89.480469 29.601562 89.671875 29.523438 C 90.675781 29.097656 91.125 30.125 91.664062 30.804688 C 92.269531 31.566406 92.496094 33.367188 93.308594 34.105469 C 94.636719 35.304688 97.621094 37.066406 99.617188 38 C 101.441406 38.859375 103.195312 38.996094 105.269531 39.722656 C 106.363281 40.105469 107.675781 40.964844 108.804688 41.789062 C 110.359375 42.917969 113.074219 44.597656 114.59375 46.5 C 116.054688 48.328125 117.007812 51.203125 117.925781 53.203125 C 118.710938 54.917969 119.496094 56.785156 120.101562 58.496094 C 120.667969 60.101562 121.226562 62.28125 121.554688 63.460938 C 121.585938 63.566406 121.609375 63.675781 121.625 63.785156 C 121.664062 64.117188 121.621094 64.445312 121.507812 64.742188 C 121.390625 65.039062 121.207031 65.3125 120.953125 65.53125 C 120.808594 65.65625 120.644531 65.761719 120.464844 65.839844 C 120.285156 65.921875 120.097656 65.972656 119.90625 65.996094 C 119.574219 66.039062 119.25 65.992188 118.949219 65.878906 C 118.652344 65.765625 118.378906 65.578125 118.160156 65.324219 C 118.089844 65.242188 118.023438 65.152344 117.964844 65.054688 C 116.484375 62.710938 115.613281 60.035156 114.132812 58.429688 C 112.699219 56.871094 110.734375 56.523438 109.089844 55.40625 C 107.429688 54.277344 105.578125 52.445312 104.160156 51.65625 C 103.039062 51.03125 101.589844 50.921875 100.589844 50.675781 C 99.820312 50.488281 99.058594 50.320312 98.300781 50.121094 C 96.675781 49.691406 94.863281 48.679688 93.3125 47.710938 C 93.449219 48.589844 93.320312 49.914062 93.492188 50.984375 C 93.734375 52.507812 94.582031 54.738281 94.78125 56.863281 C 94.941406 58.578125 94.941406 61.535156 95.253906 63.832031 C 95.597656 66.382812 96.617188 69.3125 96.851562 72.164062 C 97.089844 75.015625 96.46875 77.738281 96.671875 80.945312 C 96.816406 83.214844 97.472656 86.171875 97.742188 89.285156 C 98.035156 92.644531 97.921875 95.921875 98 99.347656 C 98.003906 99.480469 97.992188 99.609375 97.972656 99.734375 Z M 94.039062 99.316406 C 94.003906 99.265625 93.972656 99.210938 93.941406 99.15625 C 93.007812 97.464844 92.6875 95.730469 91.550781 94.765625 C 90.207031 93.628906 87.601562 92.738281 85.894531 92.335938 C 84.195312 91.933594 82.308594 91.796875 80.671875 92.167969 C 79.144531 92.511719 77.515625 92.363281 76.222656 93.203125 C 75.289062 93.808594 73.566406 95.503906 72.75 96.195312 C 70.667969 97.960938 70.21875 99.769531 70.09375 101.347656 C 70.039062 102.042969 69.550781 103.667969 70.046875 104.457031 C 70.636719 105.402344 72.894531 106.375 73.644531 107.023438 C 75.707031 108.796875 77.980469 109.644531 79.710938 110.257812 C 81.527344 110.898438 83.710938 109.753906 85.296875 109.316406 C 88.242188 108.503906 88.839844 108.019531 90.230469 106.503906 C 91.691406 104.90625 93.675781 101.738281 94.074219 99.742188 C 94.054688 99.640625 94.046875 99.539062 94.042969 99.4375 C 94.042969 99.394531 94.042969 99.355469 94.039062 99.316406 Z M 92.203125 37.730469 C 92.296875 38.878906 92.441406 40.257812 92.648438 41.9375 C 93.679688 43.363281 94.40625 44.6875 95.515625 45.414062 C 96.625 46.140625 98.140625 45.984375 99.308594 46.292969 C 101.226562 46.796875 103.175781 47.15625 105.132812 47.976562 C 107.292969 48.882812 108.6875 50.882812 110.378906 52.078125 C 111.972656 53.203125 113.996094 53.808594 115.28125 55.140625 C 114.851562 53.894531 114.433594 51.296875 113.679688 49.957031 C 112.953125 48.664062 111.730469 48.058594 110.757812 47.105469 C 109.738281 46.101562 108.757812 44.703125 107.5625 43.945312 C 106.320312 43.15625 104.703125 42.84375 103.300781 42.363281 C 101.554688 41.761719 100.019531 41.15625 98.609375 40.570312 C 96.460938 39.675781 93.910156 39.457031 92.203125 37.730469 Z M 92.203125 37.730469 " fill-opacity="1" fill-rule="evenodd"/><g fill="#1db954" fill-opacity="1"><g transform="translate(43.918939, 138.856249)"><g><path d="M 1.234375 -10.46875 L 3.65625 -10.46875 L 3.65625 0 L 1.234375 0 Z M 1.234375 -10.46875 "/></g></g></g><g fill="#1db954" fill-opacity="1"><g transform="translate(48.822051, 138.856249)"><g><path d="M 11.375 -8.171875 C 12.382812 -8.171875 13.1875 -7.875 13.78125 -7.28125 C 14.375 -6.6875 14.671875 -5.796875 14.671875 -4.609375 L 14.671875 0 L 12.34375 0 L 12.34375 -4.25 C 12.34375 -4.882812 12.207031 -5.359375 11.9375 -5.671875 C 11.675781 -5.984375 11.300781 -6.140625 10.8125 -6.140625 C 10.257812 -6.140625 9.820312 -5.960938 9.5 -5.609375 C 9.1875 -5.253906 9.03125 -4.726562 9.03125 -4.03125 L 9.03125 0 L 6.703125 0 L 6.703125 -4.25 C 6.703125 -5.507812 6.191406 -6.140625 5.171875 -6.140625 C 4.628906 -6.140625 4.195312 -5.960938 3.875 -5.609375 C 3.5625 -5.253906 3.40625 -4.726562 3.40625 -4.03125 L 3.40625 0 L 1.078125 0 L 1.078125 -8.046875 L 3.296875 -8.046875 L 3.296875 -7.125 C 3.597656 -7.457031 3.960938 -7.710938 4.390625 -7.890625 C 4.828125 -8.078125 5.304688 -8.171875 5.828125 -8.171875 C 6.398438 -8.171875 6.914062 -8.054688 7.375 -7.828125 C 7.832031 -7.597656 8.203125 -7.269531 8.484375 -6.84375 C 8.804688 -7.269531 9.21875 -7.597656 9.71875 -7.828125 C 10.226562 -8.054688 10.78125 -8.171875 11.375 -8.171875 Z M 11.375 -8.171875 "/></g></g></g><g fill="#1db954" fill-opacity="1"><g transform="translate(64.503031, 138.856249)"><g><path d="M 4.328125 -8.171875 C 5.566406 -8.171875 6.519531 -7.875 7.1875 -7.28125 C 7.851562 -6.6875 8.1875 -5.789062 8.1875 -4.59375 L 8.1875 0 L 6.015625 0 L 6.015625 -1 C 5.578125 -0.25 4.757812 0.125 3.5625 0.125 C 2.9375 0.125 2.394531 0.0195312 1.9375 -0.1875 C 1.488281 -0.40625 1.144531 -0.695312 0.90625 -1.0625 C 0.664062 -1.425781 0.546875 -1.84375 0.546875 -2.3125 C 0.546875 -3.0625 0.828125 -3.648438 1.390625 -4.078125 C 1.960938 -4.503906 2.832031 -4.71875 4 -4.71875 L 5.859375 -4.71875 C 5.859375 -5.226562 5.703125 -5.617188 5.390625 -5.890625 C 5.085938 -6.171875 4.625 -6.3125 4 -6.3125 C 3.570312 -6.3125 3.148438 -6.242188 2.734375 -6.109375 C 2.328125 -5.972656 1.976562 -5.789062 1.6875 -5.5625 L 0.859375 -7.1875 C 1.296875 -7.5 1.816406 -7.738281 2.421875 -7.90625 C 3.035156 -8.082031 3.671875 -8.171875 4.328125 -8.171875 Z M 4.140625 -1.453125 C 4.535156 -1.453125 4.890625 -1.539062 5.203125 -1.71875 C 5.515625 -1.90625 5.734375 -2.179688 5.859375 -2.546875 L 5.859375 -3.359375 L 4.265625 -3.359375 C 3.304688 -3.359375 2.828125 -3.046875 2.828125 -2.421875 C 2.828125 -2.117188 2.941406 -1.878906 3.171875 -1.703125 C 3.410156 -1.535156 3.734375 -1.453125 4.140625 -1.453125 Z M 4.140625 -1.453125 "/></g></g></g><g fill="#1db954" fill-opacity="1"><g transform="translate(73.815968, 138.856249)"><g><path d="M 9.375 -8.046875 L 9.375 -1.34375 C 9.375 0.132812 8.988281 1.226562 8.21875 1.9375 C 7.457031 2.65625 6.335938 3.015625 4.859375 3.015625 C 4.078125 3.015625 3.335938 2.921875 2.640625 2.734375 C 1.941406 2.546875 1.363281 2.269531 0.90625 1.90625 L 1.84375 0.234375 C 2.175781 0.515625 2.601562 0.738281 3.125 0.90625 C 3.644531 1.070312 4.164062 1.15625 4.6875 1.15625 C 5.488281 1.15625 6.082031 0.972656 6.46875 0.609375 C 6.851562 0.242188 7.046875 -0.304688 7.046875 -1.046875 L 7.046875 -1.390625 C 6.429688 -0.722656 5.582031 -0.390625 4.5 -0.390625 C 3.757812 -0.390625 3.082031 -0.550781 2.46875 -0.875 C 1.863281 -1.195312 1.378906 -1.648438 1.015625 -2.234375 C 0.660156 -2.828125 0.484375 -3.507812 0.484375 -4.28125 C 0.484375 -5.039062 0.660156 -5.710938 1.015625 -6.296875 C 1.378906 -6.890625 1.863281 -7.347656 2.46875 -7.671875 C 3.082031 -8.003906 3.757812 -8.171875 4.5 -8.171875 C 5.664062 -8.171875 6.550781 -7.785156 7.15625 -7.015625 L 7.15625 -8.046875 Z M 4.96875 -2.296875 C 5.582031 -2.296875 6.085938 -2.476562 6.484375 -2.84375 C 6.878906 -3.207031 7.078125 -3.6875 7.078125 -4.28125 C 7.078125 -4.863281 6.878906 -5.335938 6.484375 -5.703125 C 6.085938 -6.066406 5.582031 -6.25 4.96875 -6.25 C 4.34375 -6.25 3.832031 -6.066406 3.4375 -5.703125 C 3.039062 -5.335938 2.84375 -4.863281 2.84375 -4.28125 C 2.84375 -3.6875 3.039062 -3.207031 3.4375 -2.84375 C 3.832031 -2.476562 4.34375 -2.296875 4.96875 -2.296875 Z M 4.96875 -2.296875 "/></g></g></g><g fill="#1db954" fill-opacity="1"><g transform="translate(84.279915, 138.856249)"><g><path d="M 8.953125 -4 C 8.953125 -3.96875 8.9375 -3.753906 8.90625 -3.359375 L 2.828125 -3.359375 C 2.929688 -2.859375 3.1875 -2.460938 3.59375 -2.171875 C 4.007812 -1.890625 4.519531 -1.75 5.125 -1.75 C 5.539062 -1.75 5.910156 -1.8125 6.234375 -1.9375 C 6.566406 -2.0625 6.867188 -2.257812 7.140625 -2.53125 L 8.390625 -1.1875 C 7.628906 -0.3125 6.519531 0.125 5.0625 0.125 C 4.15625 0.125 3.351562 -0.0507812 2.65625 -0.40625 C 1.957031 -0.757812 1.421875 -1.25 1.046875 -1.875 C 0.671875 -2.507812 0.484375 -3.222656 0.484375 -4.015625 C 0.484375 -4.804688 0.664062 -5.519531 1.03125 -6.15625 C 1.40625 -6.789062 1.921875 -7.285156 2.578125 -7.640625 C 3.234375 -7.992188 3.960938 -8.171875 4.765625 -8.171875 C 5.554688 -8.171875 6.269531 -8 6.90625 -7.65625 C 7.539062 -7.3125 8.039062 -6.820312 8.40625 -6.1875 C 8.769531 -5.5625 8.953125 -4.832031 8.953125 -4 Z M 4.78125 -6.40625 C 4.257812 -6.40625 3.816406 -6.253906 3.453125 -5.953125 C 3.097656 -5.648438 2.878906 -5.238281 2.796875 -4.71875 L 6.765625 -4.71875 C 6.679688 -5.226562 6.457031 -5.632812 6.09375 -5.9375 C 5.738281 -6.25 5.300781 -6.40625 4.78125 -6.40625 Z M 4.78125 -6.40625 "/></g></g></g><g fill="#1db954" fill-opacity="1"><g transform="translate(93.712422, 138.856249)"><g><path d="M 11.375 -8.171875 C 12.382812 -8.171875 13.1875 -7.875 13.78125 -7.28125 C 14.375 -6.6875 14.671875 -5.796875 14.671875 -4.609375 L 14.671875 0 L 12.34375 0 L 12.34375 -4.25 C 12.34375 -4.882812 12.207031 -5.359375 11.9375 -5.671875 C 11.675781 -5.984375 11.300781 -6.140625 10.8125 -6.140625 C 10.257812 -6.140625 9.820312 -5.960938 9.5 -5.609375 C 9.1875 -5.253906 9.03125 -4.726562 9.03125 -4.03125 L 9.03125 0 L 6.703125 0 L 6.703125 -4.25 C 6.703125 -5.507812 6.191406 -6.140625 5.171875 -6.140625 C 4.628906 -6.140625 4.195312 -5.960938 3.875 -5.609375 C 3.5625 -5.253906 3.40625 -4.726562 3.40625 -4.03125 L 3.40625 0 L 1.078125 0 L 1.078125 -8.046875 L 3.296875 -8.046875 L 3.296875 -7.125 C 3.597656 -7.457031 3.960938 -7.710938 4.390625 -7.890625 C 4.828125 -8.078125 5.304688 -8.171875 5.828125 -8.171875 C 6.398438 -8.171875 6.914062 -8.054688 7.375 -7.828125 C 7.832031 -7.597656 8.203125 -7.269531 8.484375 -6.84375 C 8.804688 -7.269531 9.21875 -7.597656 9.71875 -7.828125 C 10.226562 -8.054688 10.78125 -8.171875 11.375 -8.171875 Z M 11.375 -8.171875 "/></g></g></g><g fill="#1db954" fill-opacity="1"><g transform="translate(109.393402, 138.856249)"><g/></g></g><g fill="#1db954" fill-opacity="1"><g transform="translate(113.623827, 138.856249)"><g><path d="M 5.96875 -8.171875 C 6.96875 -8.171875 7.769531 -7.867188 8.375 -7.265625 C 8.988281 -6.671875 9.296875 -5.785156 9.296875 -4.609375 L 9.296875 0 L 6.96875 0 L 6.96875 -4.25 C 6.96875 -4.882812 6.828125 -5.359375 6.546875 -5.671875 C 6.265625 -5.984375 5.863281 -6.140625 5.34375 -6.140625 C 4.75 -6.140625 4.273438 -5.957031 3.921875 -5.59375 C 3.578125 -5.226562 3.40625 -4.691406 3.40625 -3.984375 L 3.40625 0 L 1.078125 0 L 1.078125 -8.046875 L 3.296875 -8.046875 L 3.296875 -7.109375 C 3.609375 -7.441406 3.992188 -7.703125 4.453125 -7.890625 C 4.910156 -8.078125 5.414062 -8.171875 5.96875 -8.171875 Z M 5.96875 -8.171875 "/></g></g></g><g fill="#1db954" fill-opacity="1"><g transform="translate(123.953242, 138.856249)"><g><path d="M 4.328125 -8.171875 C 5.566406 -8.171875 6.519531 -7.875 7.1875 -7.28125 C 7.851562 -6.6875 8.1875 -5.789062 8.1875 -4.59375 L 8.1875 0 L 6.015625 0 L 6.015625 -1 C 5.578125 -0.25 4.757812 0.125 3.5625 0.125 C 2.9375 0.125 2.394531 0.0195312 1.9375 -0.1875 C 1.488281 -0.40625 1.144531 -0.695312 0.90625 -1.0625 C 0.664062 -1.425781 0.546875 -1.84375 0.546875 -2.3125 C 0.546875 -3.0625 0.828125 -3.648438 1.390625 -4.078125 C 1.960938 -4.503906 2.832031 -4.71875 4 -4.71875 L 5.859375 -4.71875 C 5.859375 -5.226562 5.703125 -5.617188 5.390625 -5.890625 C 5.085938 -6.171875 4.625 -6.3125 4 -6.3125 C 3.570312 -6.3125 3.148438 -6.242188 2.734375 -6.109375 C 2.328125 -5.972656 1.976562 -5.789062 1.6875 -5.5625 L 0.859375 -7.1875 C 1.296875 -7.5 1.816406 -7.738281 2.421875 -7.90625 C 3.035156 -8.082031 3.671875 -8.171875 4.328125 -8.171875 Z M 4.140625 -1.453125 C 4.535156 -1.453125 4.890625 -1.539062 5.203125 -1.71875 C 5.515625 -1.90625 5.734375 -2.179688 5.859375 -2.546875 L 5.859375 -3.359375 L 4.265625 -3.359375 C 3.304688 -3.359375 2.828125 -3.046875 2.828125 -2.421875 C 2.828125 -2.117188 2.941406 -1.878906 3.171875 -1.703125 C 3.410156 -1.535156 3.734375 -1.453125 4.140625 -1.453125 Z M 5.6875 -9.03125 C 5.414062 -9.03125 5.175781 -9.082031 4.96875 -9.1875 C 4.769531 -9.289062 4.546875 -9.429688 4.296875 -9.609375 C 4.128906 -9.734375 3.992188 -9.820312 3.890625 -9.875 C 3.785156 -9.9375 3.6875 -9.96875 3.59375 -9.96875 C 3.382812 -9.96875 3.210938 -9.894531 3.078125 -9.75 C 2.953125 -9.613281 2.882812 -9.410156 2.875 -9.140625 L 1.6875 -9.140625 C 1.707031 -9.804688 1.875 -10.332031 2.1875 -10.71875 C 2.5 -11.113281 2.914062 -11.3125 3.4375 -11.3125 C 3.695312 -11.3125 3.925781 -11.257812 4.125 -11.15625 C 4.332031 -11.050781 4.566406 -10.90625 4.828125 -10.71875 C 4.984375 -10.601562 5.113281 -10.515625 5.21875 -10.453125 C 5.332031 -10.390625 5.4375 -10.359375 5.53125 -10.359375 C 5.726562 -10.359375 5.894531 -10.429688 6.03125 -10.578125 C 6.164062 -10.722656 6.238281 -10.921875 6.25 -11.171875 L 7.4375 -11.171875 C 7.414062 -10.523438 7.242188 -10.003906 6.921875 -9.609375 C 6.609375 -9.222656 6.195312 -9.03125 5.6875 -9.03125 Z M 5.6875 -9.03125 "/></g></g></g><g fill="#1db954" fill-opacity="1"><g transform="translate(133.266179, 138.856249)"><g><path d="M 4.90625 0.125 C 4.0625 0.125 3.300781 -0.0507812 2.625 -0.40625 C 1.945312 -0.757812 1.421875 -1.25 1.046875 -1.875 C 0.671875 -2.507812 0.484375 -3.222656 0.484375 -4.015625 C 0.484375 -4.816406 0.671875 -5.53125 1.046875 -6.15625 C 1.421875 -6.789062 1.945312 -7.285156 2.625 -7.640625 C 3.300781 -7.992188 4.0625 -8.171875 4.90625 -8.171875 C 5.75 -8.171875 6.503906 -7.992188 7.171875 -7.640625 C 7.835938 -7.285156 8.359375 -6.789062 8.734375 -6.15625 C 9.117188 -5.53125 9.3125 -4.816406 9.3125 -4.015625 C 9.3125 -3.222656 9.117188 -2.507812 8.734375 -1.875 C 8.359375 -1.25 7.835938 -0.757812 7.171875 -0.40625 C 6.503906 -0.0507812 5.75 0.125 4.90625 0.125 Z M 4.90625 -1.796875 C 5.5 -1.796875 5.988281 -1.992188 6.375 -2.390625 C 6.757812 -2.796875 6.953125 -3.335938 6.953125 -4.015625 C 6.953125 -4.703125 6.757812 -5.242188 6.375 -5.640625 C 5.988281 -6.046875 5.5 -6.25 4.90625 -6.25 C 4.300781 -6.25 3.804688 -6.046875 3.421875 -5.640625 C 3.035156 -5.242188 2.84375 -4.703125 2.84375 -4.015625 C 2.84375 -3.335938 3.035156 -2.796875 3.421875 -2.390625 C 3.804688 -1.992188 4.300781 -1.796875 4.90625 -1.796875 Z M 4.90625 -1.796875 "/></g></g></g><g fill="#1db954" fill-opacity="1"><g transform="translate(48.278407, 159.052391)"><g><path d="M 8.953125 -4 C 8.953125 -3.96875 8.9375 -3.753906 8.90625 -3.359375 L 2.828125 -3.359375 C 2.929688 -2.859375 3.1875 -2.460938 3.59375 -2.171875 C 4.007812 -1.890625 4.519531 -1.75 5.125 -1.75 C 5.539062 -1.75 5.910156 -1.8125 6.234375 -1.9375 C 6.566406 -2.0625 6.867188 -2.257812 7.140625 -2.53125 L 8.390625 -1.1875 C 7.628906 -0.3125 6.519531 0.125 5.0625 0.125 C 4.15625 0.125 3.351562 -0.0507812 2.65625 -0.40625 C 1.957031 -0.757812 1.421875 -1.25 1.046875 -1.875 C 0.671875 -2.507812 0.484375 -3.222656 0.484375 -4.015625 C 0.484375 -4.804688 0.664062 -5.519531 1.03125 -6.15625 C 1.40625 -6.789062 1.921875 -7.285156 2.578125 -7.640625 C 3.234375 -7.992188 3.960938 -8.171875 4.765625 -8.171875 C 5.554688 -8.171875 6.269531 -8 6.90625 -7.65625 C 7.539062 -7.3125 8.039062 -6.820312 8.40625 -6.1875 C 8.769531 -5.5625 8.953125 -4.832031 8.953125 -4 Z M 4.78125 -6.40625 C 4.257812 -6.40625 3.816406 -6.253906 3.453125 -5.953125 C 3.097656 -5.648438 2.878906 -5.238281 2.796875 -4.71875 L 6.765625 -4.71875 C 6.679688 -5.226562 6.457031 -5.632812 6.09375 -5.9375 C 5.738281 -6.25 5.300781 -6.40625 4.78125 -6.40625 Z M 4.78125 -6.40625 "/></g></g></g><g fill="#1db954" fill-opacity="1"><g transform="translate(57.710914, 159.052391)"><g><path d="M 5.96875 -8.171875 C 6.96875 -8.171875 7.769531 -7.867188 8.375 -7.265625 C 8.988281 -6.671875 9.296875 -5.785156 9.296875 -4.609375 L 9.296875 0 L 6.96875 0 L 6.96875 -4.25 C 6.96875 -4.882812 6.828125 -5.359375 6.546875 -5.671875 C 6.265625 -5.984375 5.863281 -6.140625 5.34375 -6.140625 C 4.75 -6.140625 4.273438 -5.957031 3.921875 -5.59375 C 3.578125 -5.226562 3.40625 -4.691406 3.40625 -3.984375 L 3.40625 0 L 1.078125 0 L 1.078125 -8.046875 L 3.296875 -8.046875 L 3.296875 -7.109375 C 3.609375 -7.441406 3.992188 -7.703125 4.453125 -7.890625 C 4.910156 -8.078125 5.414062 -8.171875 5.96875 -8.171875 Z M 5.96875 -8.171875 "/></g></g></g><g fill="#1db954" fill-opacity="1"><g transform="translate(68.130039, 159.052391)"><g><path d="M 4.96875 0.125 C 4.101562 0.125 3.328125 -0.0507812 2.640625 -0.40625 C 1.960938 -0.757812 1.429688 -1.25 1.046875 -1.875 C 0.671875 -2.507812 0.484375 -3.222656 0.484375 -4.015625 C 0.484375 -4.816406 0.671875 -5.53125 1.046875 -6.15625 C 1.429688 -6.789062 1.960938 -7.285156 2.640625 -7.640625 C 3.328125 -7.992188 4.101562 -8.171875 4.96875 -8.171875 C 5.8125 -8.171875 6.550781 -7.992188 7.1875 -7.640625 C 7.820312 -7.285156 8.28125 -6.773438 8.5625 -6.109375 L 6.765625 -5.140625 C 6.335938 -5.878906 5.734375 -6.25 4.953125 -6.25 C 4.335938 -6.25 3.832031 -6.046875 3.4375 -5.640625 C 3.039062 -5.242188 2.84375 -4.703125 2.84375 -4.015625 C 2.84375 -3.328125 3.039062 -2.785156 3.4375 -2.390625 C 3.832031 -1.992188 4.335938 -1.796875 4.953125 -1.796875 C 5.742188 -1.796875 6.347656 -2.164062 6.765625 -2.90625 L 8.5625 -1.90625 C 8.28125 -1.269531 7.820312 -0.769531 7.1875 -0.40625 C 6.550781 -0.0507812 5.8125 0.125 4.96875 0.125 Z M 4.96875 0.125 "/></g></g></g><g fill="#1db954" fill-opacity="1"><g transform="translate(76.859944, 159.052391)"><g><path d="M 4.90625 0.125 C 4.0625 0.125 3.300781 -0.0507812 2.625 -0.40625 C 1.945312 -0.757812 1.421875 -1.25 1.046875 -1.875 C 0.671875 -2.507812 0.484375 -3.222656 0.484375 -4.015625 C 0.484375 -4.816406 0.671875 -5.53125 1.046875 -6.15625 C 1.421875 -6.789062 1.945312 -7.285156 2.625 -7.640625 C 3.300781 -7.992188 4.0625 -8.171875 4.90625 -8.171875 C 5.75 -8.171875 6.503906 -7.992188 7.171875 -7.640625 C 7.835938 -7.285156 8.359375 -6.789062 8.734375 -6.15625 C 9.117188 -5.53125 9.3125 -4.816406 9.3125 -4.015625 C 9.3125 -3.222656 9.117188 -2.507812 8.734375 -1.875 C 8.359375 -1.25 7.835938 -0.757812 7.171875 -0.40625 C 6.503906 -0.0507812 5.75 0.125 4.90625 0.125 Z M 4.90625 -1.796875 C 5.5 -1.796875 5.988281 -1.992188 6.375 -2.390625 C 6.757812 -2.796875 6.953125 -3.335938 6.953125 -4.015625 C 6.953125 -4.703125 6.757812 -5.242188 6.375 -5.640625 C 5.988281 -6.046875 5.5 -6.25 4.90625 -6.25 C 4.300781 -6.25 3.804688 -6.046875 3.421875 -5.640625 C 3.035156 -5.242188 2.84375 -4.703125 2.84375 -4.015625 C 2.84375 -3.335938 3.035156 -2.796875 3.421875 -2.390625 C 3.804688 -1.992188 4.300781 -1.796875 4.90625 -1.796875 Z M 4.90625 -1.796875 "/></g></g></g><g fill="#1db954" fill-opacity="1"><g transform="translate(86.651216, 159.052391)"><g><path d="M 5.96875 -8.171875 C 6.96875 -8.171875 7.769531 -7.867188 8.375 -7.265625 C 8.988281 -6.671875 9.296875 -5.785156 9.296875 -4.609375 L 9.296875 0 L 6.96875 0 L 6.96875 -4.25 C 6.96875 -4.882812 6.828125 -5.359375 6.546875 -5.671875 C 6.265625 -5.984375 5.863281 -6.140625 5.34375 -6.140625 C 4.75 -6.140625 4.273438 -5.957031 3.921875 -5.59375 C 3.578125 -5.226562 3.40625 -4.691406 3.40625 -3.984375 L 3.40625 0 L 1.078125 0 L 1.078125 -8.046875 L 3.296875 -8.046875 L 3.296875 -7.109375 C 3.609375 -7.441406 3.992188 -7.703125 4.453125 -7.890625 C 4.910156 -8.078125 5.414062 -8.171875 5.96875 -8.171875 Z M 5.96875 -8.171875 "/></g></g></g><g fill="#1db954" fill-opacity="1"><g transform="translate(96.98063, 159.052391)"><g><path d="M 6.265625 -0.390625 C 6.035156 -0.222656 5.753906 -0.09375 5.421875 0 C 5.085938 0.0820312 4.734375 0.125 4.359375 0.125 C 3.410156 0.125 2.671875 -0.117188 2.140625 -0.609375 C 1.617188 -1.097656 1.359375 -1.816406 1.359375 -2.765625 L 1.359375 -6.078125 L 0.125 -6.078125 L 0.125 -7.859375 L 1.359375 -7.859375 L 1.359375 -9.828125 L 3.6875 -9.828125 L 3.6875 -7.859375 L 5.703125 -7.859375 L 5.703125 -6.078125 L 3.6875 -6.078125 L 3.6875 -2.796875 C 3.6875 -2.453125 3.773438 -2.1875 3.953125 -2 C 4.128906 -1.820312 4.375 -1.734375 4.6875 -1.734375 C 5.0625 -1.734375 5.378906 -1.832031 5.640625 -2.03125 Z M 6.265625 -0.390625 "/></g></g></g><g fill="#1db954" fill-opacity="1"><g transform="translate(103.483229, 159.052391)"><g><path d="M 3.296875 -6.984375 C 3.578125 -7.367188 3.953125 -7.660156 4.421875 -7.859375 C 4.898438 -8.066406 5.453125 -8.171875 6.078125 -8.171875 L 6.078125 -6.015625 C 5.816406 -6.035156 5.640625 -6.046875 5.546875 -6.046875 C 4.878906 -6.046875 4.351562 -5.859375 3.96875 -5.484375 C 3.59375 -5.109375 3.40625 -4.546875 3.40625 -3.796875 L 3.40625 0 L 1.078125 0 L 1.078125 -8.046875 L 3.296875 -8.046875 Z M 3.296875 -6.984375 "/></g></g></g><g fill="#1db954" fill-opacity="1"><g transform="translate(109.821368, 159.052391)"><g><path d="M 4.328125 -8.171875 C 5.566406 -8.171875 6.519531 -7.875 7.1875 -7.28125 C 7.851562 -6.6875 8.1875 -5.789062 8.1875 -4.59375 L 8.1875 0 L 6.015625 0 L 6.015625 -1 C 5.578125 -0.25 4.757812 0.125 3.5625 0.125 C 2.9375 0.125 2.394531 0.0195312 1.9375 -0.1875 C 1.488281 -0.40625 1.144531 -0.695312 0.90625 -1.0625 C 0.664062 -1.425781 0.546875 -1.84375 0.546875 -2.3125 C 0.546875 -3.0625 0.828125 -3.648438 1.390625 -4.078125 C 1.960938 -4.503906 2.832031 -4.71875 4 -4.71875 L 5.859375 -4.71875 C 5.859375 -5.226562 5.703125 -5.617188 5.390625 -5.890625 C 5.085938 -6.171875 4.625 -6.3125 4 -6.3125 C 3.570312 -6.3125 3.148438 -6.242188 2.734375 -6.109375 C 2.328125 -5.972656 1.976562 -5.789062 1.6875 -5.5625 L 0.859375 -7.1875 C 1.296875 -7.5 1.816406 -7.738281 2.421875 -7.90625 C 3.035156 -8.082031 3.671875 -8.171875 4.328125 -8.171875 Z M 4.140625 -1.453125 C 4.535156 -1.453125 4.890625 -1.539062 5.203125 -1.71875 C 5.515625 -1.90625 5.734375 -2.179688 5.859375 -2.546875 L 5.859375 -3.359375 L 4.265625 -3.359375 C 3.304688 -3.359375 2.828125 -3.046875 2.828125 -2.421875 C 2.828125 -2.117188 2.941406 -1.878906 3.171875 -1.703125 C 3.410156 -1.535156 3.734375 -1.453125 4.140625 -1.453125 Z M 4.140625 -1.453125 "/></g></g></g><g fill="#1db954" fill-opacity="1"><g transform="translate(119.134305, 159.052391)"><g><path d="M 9.265625 -11.09375 L 9.265625 0 L 7.046875 0 L 7.046875 -0.921875 C 6.460938 -0.222656 5.625 0.125 4.53125 0.125 C 3.769531 0.125 3.082031 -0.0390625 2.46875 -0.375 C 1.863281 -0.71875 1.382812 -1.203125 1.03125 -1.828125 C 0.6875 -2.460938 0.515625 -3.191406 0.515625 -4.015625 C 0.515625 -4.847656 0.6875 -5.578125 1.03125 -6.203125 C 1.382812 -6.828125 1.863281 -7.3125 2.46875 -7.65625 C 3.082031 -8 3.769531 -8.171875 4.53125 -8.171875 C 5.5625 -8.171875 6.363281 -7.84375 6.9375 -7.1875 L 6.9375 -11.09375 Z M 4.9375 -1.796875 C 5.519531 -1.796875 6.003906 -1.992188 6.390625 -2.390625 C 6.785156 -2.796875 6.984375 -3.335938 6.984375 -4.015625 C 6.984375 -4.703125 6.785156 -5.242188 6.390625 -5.640625 C 6.003906 -6.046875 5.519531 -6.25 4.9375 -6.25 C 4.332031 -6.25 3.835938 -6.046875 3.453125 -5.640625 C 3.066406 -5.242188 2.875 -4.703125 2.875 -4.015625 C 2.875 -3.335938 3.066406 -2.796875 3.453125 -2.390625 C 3.835938 -1.992188 4.332031 -1.796875 4.9375 -1.796875 Z M 4.9375 -1.796875 "/></g></g></g><g fill="#1db954" fill-opacity="1"><g transform="translate(129.478672, 159.052391)"><g><path d="M 4.328125 -8.171875 C 5.566406 -8.171875 6.519531 -7.875 7.1875 -7.28125 C 7.851562 -6.6875 8.1875 -5.789062 8.1875 -4.59375 L 8.1875 0 L 6.015625 0 L 6.015625 -1 C 5.578125 -0.25 4.757812 0.125 3.5625 0.125 C 2.9375 0.125 2.394531 0.0195312 1.9375 -0.1875 C 1.488281 -0.40625 1.144531 -0.695312 0.90625 -1.0625 C 0.664062 -1.425781 0.546875 -1.84375 0.546875 -2.3125 C 0.546875 -3.0625 0.828125 -3.648438 1.390625 -4.078125 C 1.960938 -4.503906 2.832031 -4.71875 4 -4.71875 L 5.859375 -4.71875 C 5.859375 -5.226562 5.703125 -5.617188 5.390625 -5.890625 C 5.085938 -6.171875 4.625 -6.3125 4 -6.3125 C 3.570312 -6.3125 3.148438 -6.242188 2.734375 -6.109375 C 2.328125 -5.972656 1.976562 -5.789062 1.6875 -5.5625 L 0.859375 -7.1875 C 1.296875 -7.5 1.816406 -7.738281 2.421875 -7.90625 C 3.035156 -8.082031 3.671875 -8.171875 4.328125 -8.171875 Z M 4.140625 -1.453125 C 4.535156 -1.453125 4.890625 -1.539062 5.203125 -1.71875 C 5.515625 -1.90625 5.734375 -2.179688 5.859375 -2.546875 L 5.859375 -3.359375 L 4.265625 -3.359375 C 3.304688 -3.359375 2.828125 -3.046875 2.828125 -2.421875 C 2.828125 -2.117188 2.941406 -1.878906 3.171875 -1.703125 C 3.410156 -1.535156 3.734375 -1.453125 4.140625 -1.453125 Z M 4.140625 -1.453125 "/></g></g></g></svg>